<svg xmlns="http://www.w3.org/2000/svg" data-name="Layer 1" viewBox="0 0 100 125" x="0px" y="0px"><title>Artboard 3</title><path d="M38.11,41a3.15,3.15,0,1,1,3.15,3.15A3.15,3.15,0,0,1,38.11,41ZM59,44.12A3.15,3.15,0,1,0,55.89,41,3.15,3.15,0,0,0,59,44.12ZM1,94.73c0-17.2,21.69-24.06,31-26.22a.25.25,0,0,0,.19-.25V64.62a28.42,28.42,0,0,1-4.74-9.45C25,52.77,23.92,49,23.34,46.9c-.95-3.34-1.9-8.19.71-11.64l.12-.15c-.17-1-.3-2-.38-3-1.18-7.84-.27-13.69,2.71-17.35A9.89,9.89,0,0,1,33,11.08c1.52-5.25,8.94-10.37,15.67-9C55.2,3.48,68.83,1.94,69,1.92a.68.68,0,0,1,.48.14.64.64,0,0,1,.23.45,6.72,6.72,0,0,1-1.92,4.89c10.9,7.27,9.33,21.62,8.07,27.69l.11.15c2.61,3.46,1.66,8.3.72,11.64-.58,2.06-1.66,5.88-4.1,8.29a28.29,28.29,0,0,1-4.74,9.38v3.7a.26.26,0,0,0,.19.25c9.33,2.15,31,9,31,26.22a3.39,3.39,0,0,1-3.38,3.38H4.35A3.39,3.39,0,0,1,1,94.73ZM64.66,74.39a7,7,0,0,1-3.2-3.84A23.19,23.19,0,0,1,56.58,73a19.73,19.73,0,0,1-13.16,0,22.7,22.7,0,0,1-4.9-2.44,7,7,0,0,1-3.19,3.79A17.89,17.89,0,0,0,50,81.68,17.89,17.89,0,0,0,64.66,74.39ZM32.32,51.21a.64.64,0,0,1,.59.54c.88,5.67,5.17,13,12.54,15.55a13.55,13.55,0,0,0,9.08,0c7.07-2.55,11.68-9.74,12.57-15.54a.64.64,0,0,1,.59-.54c.35,0,1.6-.54,3.14-6,1.2-4.24.69-5.78.29-6.32a1.55,1.55,0,0,0-1.45-.5.65.65,0,0,1-.57-.24.64.64,0,0,1-.1-.61l0-.13c.3-1,1.56-6.18-2.82-9.42-3.85.86-10.16,1.09-18.64-2.53-4.14-1.77-7.62-1.83-10.32-.18-5.42,3.3-6.16,12.43-6.17,12.52a.64.64,0,0,1-.68.59h-.29a1.38,1.38,0,0,0-1.19.52c-.41.54-.91,2.08.29,6.32C30.72,50.67,32,51.19,32.32,51.21Zm8.64,2a9.21,9.21,0,0,0,18.08,0,1.5,1.5,0,0,0-1.49-1.77H42.45A1.5,1.5,0,0,0,41,53.18Z"/><text x="0" y="115" fill="#000000" font-size="5px" font-weight="bold" font-family="'Helvetica Neue', Helvetica, Arial-Unicode, Arial, Sans-serif">Created by Gregor Cresnar</text><text x="0" y="120" fill="#000000" font-size="5px" font-weight="bold" font-family="'Helvetica Neue', Helvetica, Arial-Unicode, Arial, Sans-serif">from the Noun Project</text></svg>